<svg width="150" height="117" viewBox="0 0 150 117" fill="none" xmlns="http://www.w3.org/2000/svg">
<g clip-path="url(#clip0_350_1632)">
<path fill-rule="evenodd" clip-rule="evenodd" d="M77.7539 11.2651C81.0383 9.94755 83.6787 9.50078 87.7505 9.50078C93.4529 9.50078 100.388 11.9261 105.122 15.4228C107.521 14.6068 110.009 14.0551 112.534 13.7862C114.525 13.4944 116.554 13.4351 118.556 13.6722C136.265 14.8712 150 29.3685 150 46.8565C150 63.9205 137.187 81.0393 119.209 82.3021C117.717 82.7397 115.308 82.8537 114.155 82.9312C110.537 83.182 106.896 83.3096 103.274 83.4236C92.7118 83.7518 82.1176 83.8384 71.5512 83.7929C61.8557 83.7473 52.1093 83.6014 42.423 83.1045C38.7774 82.9175 35.0993 82.685 31.4722 82.2702C29.3737 82.0331 26.5943 81.7049 24.6024 80.9618C9.64454 76.4986 0 61.9739 0 46.8565C0 30.2621 13.9665 15.3088 30.7078 13.736C35.7061 5.40687 45.1839 0 55.0508 0C64.2784 0 72.4128 4.09391 77.7493 11.2651H77.7539Z" fill="#FFD701"/>
<path fill-rule="evenodd" clip-rule="evenodd" d="M25.413 78.6412C12.512 74.8345 2.49219 62.0741 2.49219 46.8565C2.49219 31.6388 15.6712 16.8862 32.2318 16.0838C36.526 7.9826 45.522 2.45264 55.0554 2.45264C64.6397 2.45264 72.3063 7.19847 76.8552 14.3332C80.1627 12.8105 82.465 11.958 87.7459 11.958C92.8739 11.958 100.068 14.3149 104.663 18.2082C107.239 17.2007 109.986 16.526 112.849 16.2251C114.79 15.9379 116.615 15.9106 118.319 16.1203C134.621 17.1916 147.512 30.5082 147.512 46.861C147.512 63.2139 135.135 78.9102 118.736 79.8812C116.05 81.5361 35.6181 82.571 25.4177 78.6458L25.413 78.6412Z" fill="#FEFEFE"/>
<path d="M33.9085 65.0148C31.4256 65.0148 29.0214 64.5498 26.7099 63.6243C24.9218 62.9086 23.3005 61.9649 21.8366 60.7841C20.3497 59.5851 20.9797 59.2113 21.5541 58.5685L23.6525 56.1705C24.0046 55.7648 24.301 55.2861 25.6166 56.289C26.6311 57.0641 27.7382 57.7205 28.9427 58.2585C30.6381 59.0198 32.3289 59.3982 34.0243 59.3982C36.1321 59.3982 37.7349 58.9742 38.8235 58.1217C39.9167 57.2692 40.4633 56.1386 40.4633 54.7299C40.4633 53.9913 40.3243 53.3577 40.0418 52.8379C39.7592 52.3182 39.3654 51.8669 38.8559 51.4748C38.3463 51.0873 37.7441 50.7226 37.0493 50.3898C36.3544 50.057 35.5901 49.7242 34.7609 49.3914L29.6792 47.2259C28.7759 46.8566 27.8818 46.3916 26.9971 45.8354C26.1123 45.2793 25.3109 44.6137 24.5975 43.8341C23.8841 43.0545 23.3097 42.1473 22.8743 41.1124C22.4388 40.073 22.2258 38.8877 22.2258 37.5565C22.2258 36.1113 22.5361 34.7664 23.1569 33.5264C23.7776 32.2864 24.6346 31.2013 25.7278 30.2759C26.821 29.3504 28.1274 28.6255 29.6514 28.1104C31.1754 27.5907 32.8431 27.3308 34.6497 27.3308C36.7945 27.3308 38.8651 27.7502 40.8617 28.58C42.2607 29.1635 43.5207 29.8929 44.6417 30.7591C46.0545 31.8533 45.7025 32.3 45.2578 32.8608L43.3863 35.1676C42.8629 35.8058 42.7007 36.0155 41.5658 35.2405C40.7088 34.6524 39.8333 34.1646 38.9393 33.7771C37.6607 33.2209 36.2293 32.9428 34.6497 32.9428C32.8802 32.9428 31.4673 33.3212 30.4157 34.0826C29.3596 34.8439 28.8361 35.8879 28.8361 37.2237C28.8361 37.9303 28.9982 38.5275 29.3179 39.029C29.6375 39.5305 30.073 39.9727 30.6149 40.3647C31.1616 40.7523 31.7916 41.1079 32.5049 41.4224C33.2183 41.737 33.9549 42.0424 34.7053 42.3388L39.7314 44.3948C40.8246 44.8416 41.8206 45.3568 42.7239 45.9494C43.6272 46.5421 44.4101 47.2259 45.0679 48.0055C45.7256 48.7851 46.2445 49.6832 46.6197 50.6998C46.9949 51.721 47.1848 52.8972 47.1848 54.2284C47.1848 55.7101 46.8837 57.1005 46.2815 58.3953C45.6793 59.69 44.8038 60.8297 43.655 61.8144C42.5062 62.7946 41.1118 63.5742 39.4766 64.1486C37.8368 64.723 35.9838 65.0103 33.9132 65.0103L33.9085 65.0148Z" fill="#0674E4"/>
<path d="M71.7639 37.0594H66.6174C66.0986 37.0594 65.3481 37.4834 64.9358 37.9849L64.8941 38.0396H64.8756C61.7256 41.901 58.5803 45.7624 55.4303 49.6192H55.2589V27.3672L48.8755 30.8548V63.4191C48.8755 63.9297 49.3017 64.3445 49.8159 64.3445H54.3139C54.8327 64.3445 55.2542 63.9251 55.2542 63.4191V57.3968L59.604 52.505L63.9816 59.7492C64.0047 59.8175 64.0372 59.8859 64.0835 59.9589L66.2005 63.4145C66.5108 63.9206 67.1872 64.34 67.7013 64.34H72.7923C73.3111 64.34 73.4918 63.916 73.1768 63.4145L70.9903 59.9452C70.9162 59.8267 70.8235 59.7172 70.7216 59.6124L63.3284 48.1695C66.2468 44.7549 69.1698 41.5226 71.9816 38.035C72.3893 37.529 72.2735 37.0549 71.7593 37.0549L71.7639 37.0594Z" fill="#0674E4"/>
<path fill-rule="evenodd" clip-rule="evenodd" d="M49.8207 29.3959L54.3187 26.8384C54.8376 26.542 55.2591 26.7198 55.2591 27.2304V30.6998C55.2591 31.2104 54.8329 31.8669 54.3187 32.1632L49.8207 34.7207C49.3019 35.0171 48.8804 34.8393 48.8804 34.3287V30.8593C48.8804 30.3487 49.3065 29.6923 49.8207 29.3959Z" fill="#0674E4"/>
<path d="M80.6074 66.4234C80.941 65.8991 81.1633 64.7138 81.3671 64.0163L71.1436 38.7371L77.6798 38.7599L81.8721 50.4581C82.2982 51.6388 82.692 52.8971 83.0857 54.2101C83.4795 55.5276 83.8871 56.8314 84.2994 58.1262H84.5264C84.8646 56.8679 85.212 55.5777 85.5733 54.2648C85.93 52.9472 86.2404 51.6707 86.6202 50.4581L90.3771 38.418H96.589L87.014 65.5754C86.4627 67.1346 86.5507 67.1209 85.8698 68.3427C85.1935 69.5645 84.4106 70.613 83.5258 71.4838C82.641 72.3545 81.6266 73.0201 80.4777 73.4851C79.6207 73.8316 78.6665 74.0459 77.6057 74.1371L80.6028 66.4279L80.6074 66.4234Z" fill="#0674E4"/>
<path fill-rule="evenodd" clip-rule="evenodd" d="M71.4678 37.0595H76.1465C76.6653 37.0595 77.2351 37.4789 77.4111 37.985L78.6202 41.4543C78.8008 41.9649 78.5183 42.3797 77.9994 42.3797H73.5014C72.9826 42.3797 72.436 41.9558 72.2368 41.4543L70.8564 38.026C70.6525 37.5245 70.949 37.0549 71.4678 37.0549V37.0595Z" fill="#0674E4"/>
<path fill-rule="evenodd" clip-rule="evenodd" d="M96.1212 37.0595H91.776C91.2618 37.0595 90.6689 37.4744 90.5114 37.985L89.4367 41.4041C89.2745 41.9193 89.5386 42.3296 90.0574 42.3296H94.2775C94.7963 42.3296 95.3614 41.9102 95.5421 41.4041L96.7373 38.026C96.9179 37.5154 96.64 37.0549 96.1258 37.0549L96.1212 37.0595Z" fill="#0674E4"/>
<path d="M105.33 62.7078C103.713 61.6912 102.319 60.3828 101.152 58.7917C99.9845 57.2007 99.0904 55.3269 98.4697 53.1797C97.8489 51.0324 97.5386 48.639 97.5386 46.0085C97.5386 43.0817 97.9323 40.4603 98.7245 38.1444C99.5166 35.8285 100.624 33.8727 102.055 32.2816C103.487 30.6906 105.2 29.4642 107.192 28.6117C109.189 27.7592 111.389 27.3352 113.798 27.3352C116.207 27.3352 118.412 27.7592 120.404 28.6117C122.4 29.4642 124.124 30.686 125.574 32.2816C127.023 33.8727 128.144 35.8285 128.932 38.1444C129.724 40.4603 130.118 43.0817 130.118 46.0085C130.118 48.5296 129.826 50.8364 129.242 52.929C128.659 55.0215 127.82 56.8679 126.727 58.4589C122.34 64.8551 111.973 66.8975 105.326 62.7124L105.33 62.7078ZM113.803 59.7354C115.271 59.7354 116.587 59.4209 117.754 58.7917C118.921 58.1626 119.917 57.2554 120.747 56.07C121.576 54.8847 122.215 53.4396 122.664 51.7345C123.114 50.0295 123.341 48.1239 123.341 46.0085C123.341 41.9329 122.484 38.7371 120.77 36.4211C119.056 34.1052 116.73 32.9472 113.793 32.9472C110.857 32.9472 108.531 34.1052 106.817 36.4211C105.103 38.7371 104.246 41.9329 104.246 46.0085C104.246 48.1193 104.473 50.0295 104.923 51.7345C105.372 53.4396 106.016 54.8847 106.84 56.07C107.67 57.2554 108.665 58.1626 109.833 58.7917C111 59.4209 112.316 59.7354 113.784 59.7354H113.803Z" fill="#0674E4"/>
<path fill-rule="evenodd" clip-rule="evenodd" d="M124.554 67.9005C126.491 68.8761 128.422 68.9627 130.498 68.3427C131.452 68.0555 130.841 65.0603 129.886 64.9509C125.472 64.4631 125.926 59.9087 122.873 56.4394C120.747 54.0231 117.685 52.9199 114.456 53.9046C113.775 54.1143 114.326 56.1157 114.553 56.6445C114.877 57.4104 115.897 56.6081 117.43 57.8162C117.828 58.1307 118.014 58.3222 118.338 58.7416C120.534 61.5545 119.811 65.5116 124.554 67.9005Z" fill="#0674E4"/>
</g>
<defs>
<clipPath id="clip0_350_1632">
<rect width="150" height="117" fill="white"/>
</clipPath>
</defs>
</svg>
